HIERARCHY
ROOT Hips
{
	OFFSET 0.000000 88.474243 0.000000
	CHANNELS 6 Xposition Yposition Zposition Zrotation Yrotation Xrotation 
	JOINT Hips_Spine
	{
		OFFSET 0.000000 0.000000 0.000000
		CHANNELS 3 Zrotation Yrotation Xrotation
		JOINT Spine
		{
			OFFSET 0.005100 8.711998 -0.691000
			CHANNELS 3 Zrotation Yrotation Xrotation
			JOINT Spine1
			{
				OFFSET -0.009200 8.660301 -1.275000
				CHANNELS 3 Zrotation Yrotation Xrotation
				JOINT Spine2
				{
					OFFSET 0.006300 9.852501 -1.857000
					CHANNELS 3 Zrotation Yrotation Xrotation
					JOINT Spine2_Neck
					{
						OFFSET 0.000000 0.000000 0.000000
						CHANNELS 3 Zrotation Yrotation Xrotation
						JOINT Neck
						{
							OFFSET 0.016300 11.420799 -0.263300
							CHANNELS 3 Zrotation Yrotation Xrotation
							End Site #name: Head
							{
								OFFSET -0.019200 9.262405 2.362500
							}
						}
					}
					JOINT Spine2_LeftShoulder
					{
						OFFSET 0.000000 0.000000 0.000000
						CHANNELS 3 Zrotation Yrotation Xrotation
						JOINT LeftShoulder
						{
							OFFSET 5.616900 6.732201 -0.345700
							CHANNELS 3 Zrotation Yrotation Xrotation
							JOINT LeftArm
							{
								OFFSET 10.664888 -0.183372 -2.440700
								CHANNELS 3 Zrotation Yrotation Xrotation
								JOINT LeftForeArm
								{
									OFFSET 27.459126 0.000000 0.000000
									CHANNELS 3 Zrotation Yrotation Xrotation
									End Site #name: LeftHand
									{
										OFFSET 21.306858 0.000000 0.000000
									}
								}
							}
						}
					}
					JOINT Spine2_RightShoulder
					{
						OFFSET 0.000000 0.000000 0.000000
						CHANNELS 3 Zrotation Yrotation Xrotation
						JOINT RightShoulder
						{
							OFFSET -5.580300 6.737503 -0.344400
							CHANNELS 3 Zrotation Yrotation Xrotation
							JOINT RightArm
							{
								OFFSET -10.679335 -0.188484 -2.383900
								CHANNELS 3 Zrotation Yrotation Xrotation
								JOINT RightForeArm
								{
									OFFSET -27.503529 0.000000 0.000000
									CHANNELS 3 Zrotation Yrotation Xrotation
									End Site #name: RightHand
									{
										OFFSET -21.306808 0.000000 0.000000
									}
								}
							}
						}
					}
				}
			}
		}
	}
	JOINT Hips_LeftUpLeg
	{
		OFFSET 0.000000 0.000000 0.000000
		CHANNELS 3 Zrotation Yrotation Xrotation
		JOINT LeftUpLeg
		{
			OFFSET 6.857700 -6.739601 0.312100
			CHANNELS 3 Zrotation Yrotation Xrotation
			JOINT LeftLeg
			{
				OFFSET -0.367590 -34.731552 -4.572400
				CHANNELS 3 Zrotation Yrotation Xrotation
				End Site #name: LeftFoot
				{
					OFFSET 0.367590 -34.656704 -6.067400
				}
			}
		}
	}
	JOINT Hips_RightUpLeg
	{
		OFFSET 0.000000 0.000000 0.000000
		CHANNELS 3 Zrotation Yrotation Xrotation
		JOINT RightUpLeg
		{
			OFFSET -6.876100 -6.733299 0.301000
			CHANNELS 3 Zrotation Yrotation Xrotation
			JOINT RightLeg
			{
				OFFSET 0.347353 -34.795158 -4.515900
				CHANNELS 3 Zrotation Yrotation Xrotation
				End Site #name: RightFoot
				{
					OFFSET -0.347353 -34.589367 -6.070300
				}
			}
		}
	}
}
MOTION
Frames: 13
Frame Time: 0.041667
-51.932999 87.016800 17.716539 10.080459 64.715374 -20.757280 0.000000 -0.000000 0.000000 -1.017809 8.285210 -29.094747 -0.666920 -31.749795 -9.837526 0.000000 0.000000 0.000000 -7.869766 -14.648461 -5.393619 -76.751980 10.885326 -19.505216 -12.926473 -3.697601 -2.433564 -92.723234 -16.110331 3.160189 -164.756275 51.398880 -127.299147 179.256622 -26.866996 176.201153 -16.984694 -14.069999 10.180929 66.766081 -7.089963 -14.668453 46.697307 43.261023 -130.936973 -179.678411 18.864917 179.302231 -0.000000 -0.000000 0.000000 44.716523 -15.276863 29.667566 66.089086 20.348944 124.877026 -0.000000 0.000000 0.000000 90.666596 17.208034 4.570186 -23.482907 23.114925 -59.364375 
-53.124149 89.733948 18.365656 9.820208 65.003825 -20.972835 0.000000 -0.000000 0.000000 -1.021473 8.185737 -28.656159 -0.494701 -32.332182 -10.475013 0.000000 0.000000 0.000000 -7.982638 -14.930094 -5.608461 -76.952064 10.994109 -19.740404 -13.340162 -3.644348 -2.616551 -92.640938 -16.271608 3.283953 -164.730300 51.530790 -127.181325 179.294054 -26.682760 176.209951 -17.332396 -14.144846 10.580680 67.840724 -7.878670 -15.690434 47.256913 43.177129 -130.431695 -179.629297 19.520847 179.210084 -0.000000 -0.000000 0.000000 45.322120 -15.585775 29.527967 67.318629 20.059146 125.639361 -0.000000 0.000000 0.000000 90.347513 17.596658 4.146360 -23.314862 23.159728 -59.145231 
-54.372009 92.473541 19.044262 9.552083 65.519772 -21.163272 0.000000 -0.000000 0.000000 -0.985973 8.040194 -28.036383 -0.331539 -32.936578 -11.083352 0.000000 0.000000 0.000000 -8.089095 -15.247518 -5.847976 -77.110678 10.968912 -19.933363 -13.758916 -3.573131 -2.756696 -92.520171 -16.424215 3.362499 -164.776934 51.676668 -127.111708 179.316947 -26.502751 176.218258 -17.683390 -14.242311 10.998757 69.062367 -8.564846 -16.572730 47.788380 43.198419 -129.972388 -179.554255 20.069491 179.102053 -0.000000 -0.000000 0.000000 46.022746 -15.984419 29.088429 68.477723 19.666709 126.441289 -0.000000 0.000000 0.000000 90.009822 18.159850 3.430834 -23.087247 23.136163 -58.771473 
-55.678032 95.225113 19.746048 9.285137 66.204667 -21.307276 0.000000 -0.000000 0.000000 -0.937064 7.853022 -27.351440 -0.163947 -33.563369 -11.677851 0.000000 0.000000 0.000000 -8.184598 -15.602106 -6.131513 -77.194316 10.814194 -20.139061 -14.193926 -3.490597 -2.858380 -92.333181 -16.561799 3.385707 -164.900975 51.827639 -127.070064 179.322566 -26.259160 176.231763 -18.030501 -14.380632 11.416503 70.351453 -9.065624 -17.353031 48.248045 43.331094 -129.582772 -179.460180 20.526215 178.990909 -0.000000 -0.000000 0.000000 46.766852 -16.447600 28.471151 69.483191 19.298206 127.116631 -0.000000 0.000000 0.000000 89.779785 18.862454 2.611786 -22.812399 23.151288 -58.256154 
-57.041832 97.983437 20.461140 9.022056 67.066098 -21.400213 0.000000 -0.000000 0.000000 -0.947627 7.575844 -26.574520 -0.058217 -34.176241 -12.268022 0.000000 0.000000 0.000000 -8.273159 -16.005465 -6.467969 -77.197873 10.518312 -20.331478 -14.655131 -3.392571 -2.932816 -92.097855 -16.673208 3.357173 -165.070147 51.983951 -127.031301 179.318887 -26.075476 176.248286 -18.368398 -14.552208 11.823787 71.782699 -9.395645 -18.053987 48.610548 43.615032 -129.267178 -179.356221 20.808828 178.871843 -0.000000 -0.000000 0.000000 47.493852 -16.911780 27.705410 70.236391 18.929555 127.642864 -0.000000 0.000000 0.000000 89.571128 19.726993 1.474506 -22.421964 23.231102 -57.502795 
-58.451458 100.747734 21.180529 8.757657 68.107351 -21.422136 0.000000 -0.000000 0.000000 -0.921556 7.312552 -25.757282 0.024748 -34.793485 -12.862535 0.000000 0.000000 0.000000 -8.343725 -16.432232 -6.798034 -77.127743 10.115954 -20.546495 -15.112426 -3.285862 -2.983028 -91.755034 -16.751873 3.254532 -165.283154 52.148362 -127.002895 179.308381 -25.879411 176.271963 -18.712429 -14.730134 12.231695 73.284917 -9.559018 -18.646001 48.884158 44.043552 -129.039925 -179.245342 20.995569 178.752173 -0.000000 -0.000000 0.000000 48.240183 -17.469575 26.719203 70.686472 18.664095 128.032606 -0.000000 -0.000000 0.000000 89.401649 20.759671 0.195514 -21.886312 23.293276 -56.678083 
-59.892109 103.521339 21.894758 8.481112 69.332646 -21.387950 0.000000 -0.000000 0.000000 -0.926862 7.045139 -25.014575 0.087582 -35.395323 -13.341020 0.000000 0.000000 0.000000 -8.373667 -16.880480 -7.149704 -76.980445 9.613793 -20.822926 -15.558102 -3.157903 -2.985201 -91.316522 -16.788466 3.059717 -165.506231 52.308560 -126.945195 179.295029 -25.758131 176.300150 -19.033055 -14.896504 12.611176 74.716126 -9.559722 -19.098425 49.086258 44.586175 -128.901839 -179.113609 21.044234 178.637998 -0.000000 -0.000000 0.000000 49.009052 -18.173821 25.525385 70.803311 18.611247 128.172426 -0.000000 -0.000000 0.000000 89.177633 21.801954 -0.970801 -21.295018 23.319661 -56.143848 
-61.350971 106.299889 22.594727 8.222374 70.709165 -21.298893 0.000000 -0.000000 0.000000 -0.998933 6.763316 -24.296593 0.132217 -35.946833 -13.674978 0.000000 0.000000 0.000000 -8.360216 -17.307829 -7.481205 -76.726551 9.032094 -21.202881 -15.966457 -3.019177 -2.955452 -90.790523 -16.771868 2.786383 -165.741141 52.433406 -126.889356 179.267393 -25.630063 176.338288 -19.325719 -15.033194 12.956223 76.203065 -9.455879 -19.469038 49.236209 45.158899 -128.847686 -178.981874 21.273590 178.513055 -0.000000 -0.000000 0.000000 49.752542 -18.842726 24.201908 70.534473 18.629111 128.152065 -0.000000 -0.000000 0.000000 88.969716 22.861750 -1.854433 -20.760678 23.304435 -55.998436 
-62.818211 109.077797 23.269865 8.051252 72.144754 -21.076894 0.000000 -0.000000 0.000000 -1.040796 6.529119 -23.785170 0.150998 -36.417071 -13.851544 0.000000 0.000000 0.000000 -8.309782 -17.684561 -7.775907 -76.349228 8.370775 -21.662776 -16.298618 -2.884207 -2.854753 -90.135679 -16.729147 2.442643 -165.991254 52.533589 -126.818834 179.212825 -25.575567 176.380109 -19.526011 -15.126103 13.219961 77.519147 -9.170687 -19.622585 49.317373 45.772065 -128.896007 -178.841753 21.496184 178.379872 -0.000000 -0.000000 0.000000 50.302411 -19.449845 22.833237 69.992221 18.777975 127.888474 -0.000000 -0.000000 0.000000 88.970167 23.980224 -2.388481 -20.253143 23.348402 -56.134090 
-64.288757 111.866043 23.924881 7.954437 73.632802 -20.646584 0.000000 -0.000000 0.000000 -0.840242 6.460652 -23.507006 0.178314 -36.766422 -13.861286 0.000000 0.000000 0.000000 -8.220072 -18.023802 -8.048380 -75.833462 7.614165 -22.168271 -16.538695 -2.751565 -2.640381 -89.388542 -16.647474 2.069170 -166.192753 52.623083 -126.664787 179.157301 -25.617115 176.417353 -19.654184 -15.172787 13.412794 78.762062 -8.783357 -19.655536 49.355137 46.324158 -129.032880 -178.731527 21.858459 178.224904 -0.000000 -0.000000 0.000000 50.586111 -20.059124 21.634006 69.228274 19.048838 127.361206 -0.000000 -0.000000 0.000000 88.885813 25.350704 -3.066489 -19.858826 23.474087 -56.267776 
-65.754189 114.676910 24.568470 7.877589 75.193546 -20.100767 0.000000 -0.000000 0.000000 -0.532620 6.448522 -23.475957 0.214187 -36.988973 -13.778266 0.000000 0.000000 0.000000 -8.093903 -18.312509 -8.309522 -75.216956 6.786195 -22.686216 -16.674118 -2.625448 -2.323105 -88.530270 -16.504731 1.642766 -166.378862 52.723710 -126.467382 179.105942 -25.754763 176.454975 -19.658249 -15.128628 13.518543 79.922315 -8.248274 -19.505027 49.369548 46.839227 -129.205009 -178.640355 22.345986 178.064850 -0.000000 -0.000000 0.000000 50.989512 -20.471230 20.627380 68.220912 19.420110 126.544979 -0.000000 -0.000000 0.000000 88.945634 27.049769 -3.847014 -19.637014 23.651885 -56.257471 
-67.207504 117.522881 25.203554 7.886575 76.869278 -19.428037 0.000000 -0.000000 0.000000 -0.174550 6.487883 -23.522556 0.233367 -37.023987 -13.524452 0.000000 0.000000 0.000000 -7.984455 -18.484691 -8.555843 -74.694840 6.016858 -23.193259 -16.708316 -2.506269 -1.910778 -87.566002 -16.312946 1.190116 -166.525365 52.847885 -126.194968 179.057421 -26.095020 176.489730 -19.585303 -15.006337 13.549362 81.038982 -7.683161 -19.308003 49.408322 47.291957 -129.378681 -178.568038 22.920441 177.895880 -0.000000 -0.000000 0.000000 51.662038 -20.583897 19.478474 66.936556 19.838010 125.508174 -0.000000 -0.000000 0.000000 89.092797 29.373509 -5.107722 -19.508126 23.904958 -55.967115 
-68.641998 120.406456 25.834671 7.938803 78.636743 -18.669114 0.000000 -0.000000 0.000000 0.054840 6.553202 -23.600345 0.284348 -37.011366 -13.329046 0.000000 0.000000 0.000000 -7.899861 -18.641886 -8.767700 -74.357650 5.203474 -23.519039 -16.691190 -2.383394 -1.402753 -86.494885 -16.077765 0.711406 -166.648686 53.020597 -125.874796 179.016660 -26.555225 176.524889 -19.461446 -14.820107 13.548688 82.086913 -7.147561 -19.087167 49.459050 47.795637 -129.455024 -178.510707 23.521855 177.711229 -0.000000 -0.000000 0.000000 52.424094 -20.626481 18.214843 65.470965 20.230412 124.391812 -0.000000 -0.000000 0.000000 89.499327 32.019447 -6.446264 -19.348116 24.313623 -55.410041 
